<svg width="10" height="20" viewBox="0 0 10 20" fill="none" xmlns="http://www.w3.org/2000/svg">
<path d="M6.13779 19.9841C6.04984 19.9881 5.99355 19.996 5.93726 19.996C4.7341 19.996 3.53446 19.9921 2.3313 20C2.16243 20 2.1167 19.9484 2.1167 19.7579C2.12022 16.5985 2.12022 13.4352 2.12022 10.2759C2.12022 10.1925 2.12022 10.1092 2.12022 10.002C1.46587 10.002 0.829108 10.002 0.181793 10.002C0.181793 8.87478 0.181793 7.76742 0.181793 6.62831C0.248635 6.62831 0.311959 6.62831 0.371766 6.62831C0.899468 6.62831 1.42717 6.62434 1.95487 6.63228C2.08856 6.63228 2.12374 6.58862 2.12374 6.44176C2.1167 5.55667 2.1167 4.6676 2.12374 3.78251C2.12725 3.16333 2.2152 2.56004 2.4685 2.00041C2.83086 1.21057 3.40429 0.698561 4.129 0.381038C4.72003 0.119081 5.34272 0.0238242 5.96892 0.011917C6.98915 -0.00395911 8.00937 0.00397896 9.02959 9.92264e-06C9.12458 9.92264e-06 9.20198 -0.00395912 9.20198 0.146864C9.19846 1.23835 9.19846 2.32984 9.19846 3.42132C9.19846 3.43323 9.19494 3.44514 9.18087 3.49673C9.12106 3.49673 9.05422 3.49673 8.98738 3.49673C8.35414 3.49673 7.72089 3.49276 7.08765 3.49673C6.72178 3.49673 6.42627 3.66343 6.23981 4.02462C6.18352 4.13178 6.14834 4.2707 6.14834 4.39771C6.13779 5.07244 6.14834 5.74718 6.14131 6.42192C6.14131 6.58068 6.18352 6.62434 6.32072 6.62434C7.20023 6.6164 8.07973 6.62037 8.95923 6.62037C9.02959 6.62037 9.09644 6.62037 9.21605 6.62037C9.09292 7.75551 8.97331 8.86685 8.85018 9.99008C7.93549 9.99008 7.04544 9.99008 6.13779 9.99008C6.13779 13.328 6.13779 16.6462 6.13779 19.9841Z" fill="white"/>
</svg>
