<svg width="18" height="20" viewBox="0 0 18 20" fill="none" xmlns="http://www.w3.org/2000/svg">
<path d="M17.9232 9.99666C17.9232 11.3987 17.8982 12.8047 17.9304 14.2067C17.9839 16.6885 16.6012 18.6062 14.8397 19.4603C14.1322 19.8027 13.389 19.984 12.6208 19.984C10.2162 19.9881 7.80798 20.0243 5.40334 19.9719C3.59181 19.9317 2.10186 19.0776 1.03353 17.3935C0.472566 16.5072 0.20459 15.5 0.20459 14.4082C0.20459 11.5195 0.20459 8.63493 0.20459 5.74629C0.20459 3.38945 1.2229 1.74167 3.03085 0.670012C3.81692 0.206702 4.67087 0.00929089 5.56055 0.0052621C7.89373 0.0052621 10.2305 -0.0108531 12.5637 0.0133197C14.3752 0.0294348 15.8866 0.81102 17.0014 2.45477C17.6231 3.37333 17.9232 4.42887 17.9232 5.58917C17.9232 7.05565 17.9232 8.52615 17.9232 9.99666ZM1.52304 9.99666C1.52304 11.4752 1.52304 12.9498 1.52304 14.4283C1.52304 15.0891 1.65881 15.7095 1.96252 16.2695C2.7593 17.74 3.96341 18.4571 5.45693 18.4853C7.85443 18.5256 10.2555 18.5014 12.6566 18.4934C13.2461 18.4934 13.8178 18.3564 14.3502 18.0704C15.8008 17.2888 16.6119 16.0439 16.6048 14.1745C16.5905 11.3141 16.6012 8.45364 16.6012 5.59319C16.6012 4.78341 16.3975 4.04211 15.9723 3.38945C15.1505 2.13649 14.0143 1.52009 12.6566 1.50397C10.2626 1.47174 7.86872 1.49189 5.4748 1.49591C4.96386 1.49591 4.47078 1.61275 3.99199 1.81419C2.67712 2.36613 1.45515 3.76412 1.51232 5.82284C1.55519 7.2168 1.52304 8.60673 1.52304 9.99666Z" fill="white"/>
<path d="M9.08351 14.2672C6.77891 14.2672 4.92094 12.1964 4.91736 9.61795C4.91379 7.07981 6.78605 5.00095 9.07636 5.00095C11.3738 4.99692 13.2389 7.07175 13.2425 9.63003C13.2425 12.1843 11.381 14.2631 9.08351 14.2672ZM9.08351 12.7765C10.6521 12.7765 11.9241 11.3624 11.9205 9.62197C11.9169 7.89765 10.6449 6.48758 9.08351 6.48758C7.51495 6.48758 6.23581 7.89362 6.23581 9.63003C6.23938 11.3705 7.51495 12.7805 9.08351 12.7765Z" fill="white"/>
<path d="M13.7249 3.59088C14.2072 3.59088 14.6003 4.05419 14.6003 4.62225C14.5967 5.19031 14.2001 5.64959 13.7177 5.64556C13.2425 5.64154 12.8531 5.18225 12.8531 4.62628C12.8495 4.05822 13.2425 3.59088 13.7249 3.59088Z" fill="white"/>
</svg>
