<svg width="254" height="77" viewBox="0 0 254 77" fill="none" xmlns="http://www.w3.org/2000/svg">
<path d="M6.4574 18.0312H11.1449V35.2812L29.4886 18.0312H35.7074L13.6136 38.6562L37.4261 64H31.3324L11.1449 42.5625V64H6.4574V18.0312ZM39.8949 30H44.5199L56.2074 56.1875L67.5511 30H72.2074L51.9261 76.4375H47.3011L53.8636 61.4375L39.8949 30ZM93.9574 29.125C99.1866 29.125 103.52 31.0208 106.957 34.8125C110.082 38.2708 111.645 42.3646 111.645 47.0938C111.645 51.8438 109.989 56 106.676 59.5625C103.384 63.1042 99.1449 64.875 93.9574 64.875C88.7491 64.875 84.4886 63.1042 81.1761 59.5625C77.8845 56 76.2386 51.8438 76.2386 47.0938C76.2386 42.3854 77.8011 38.3021 80.9261 34.8438C84.3636 31.0312 88.7074 29.125 93.9574 29.125ZM93.9574 33.4062C90.3324 33.4062 87.2178 34.75 84.6136 37.4375C82.0095 40.125 80.7074 43.375 80.7074 47.1875C80.7074 49.6458 81.3011 51.9375 82.4886 54.0625C83.6761 56.1875 85.2803 57.8333 87.3011 59C89.322 60.1458 91.5407 60.7188 93.9574 60.7188C96.3741 60.7188 98.5928 60.1458 100.614 59C102.634 57.8333 104.239 56.1875 105.426 54.0625C106.614 51.9375 107.207 49.6458 107.207 47.1875C107.207 43.375 105.895 40.125 103.27 37.4375C100.666 34.75 97.5616 33.4062 93.9574 33.4062ZM123.614 17.375H128.02V30H134.957V33.75H128.02V64H123.614V33.75H117.645V30H123.614V17.375ZM157.582 29.125C162.812 29.125 167.145 31.0208 170.582 34.8125C173.707 38.2708 175.27 42.3646 175.27 47.0938C175.27 51.8438 173.614 56 170.301 59.5625C167.009 63.1042 162.77 64.875 157.582 64.875C152.374 64.875 148.114 63.1042 144.801 59.5625C141.509 56 139.864 51.8438 139.864 47.0938C139.864 42.3854 141.426 38.3021 144.551 34.8438C147.989 31.0312 152.332 29.125 157.582 29.125ZM157.582 33.4062C153.957 33.4062 150.843 34.75 148.239 37.4375C145.634 40.125 144.332 43.375 144.332 47.1875C144.332 49.6458 144.926 51.9375 146.114 54.0625C147.301 56.1875 148.905 57.8333 150.926 59C152.947 60.1458 155.166 60.7188 157.582 60.7188C159.999 60.7188 162.218 60.1458 164.239 59C166.259 57.8333 167.864 56.1875 169.051 54.0625C170.239 51.9375 170.832 49.6458 170.832 47.1875C170.832 43.375 169.52 40.125 166.895 37.4375C164.291 34.75 161.187 33.4062 157.582 33.4062Z" fill="white"/>
<path d="M241.5 24C241.5 24.2642 241.368 24.6814 240.769 25.2289C240.17 25.7774 239.22 26.3402 237.919 26.8438C235.326 27.8473 231.643 28.5 227.5 28.5C223.357 28.5 219.674 27.8473 217.081 26.8438C215.78 26.3402 214.83 25.7774 214.231 25.2289C213.632 24.6814 213.5 24.2642 213.5 24C213.5 23.7358 213.632 23.3186 214.231 22.7711C214.83 22.2226 215.78 21.6598 217.081 21.1562C219.674 20.1527 223.357 19.5 227.5 19.5C231.643 19.5 235.326 20.1527 237.919 21.1562C239.22 21.6598 240.17 22.2226 240.769 22.7711C241.368 23.3186 241.5 23.7358 241.5 24Z" stroke="#FF3D00" stroke-width="3"/>
<line x1="213.5" y1="43" x2="213.5" y2="67" stroke="white" stroke-width="3"/>
<path d="M203 18.5L203 66.5M252 18.5L252 66.5L227 66.5" stroke="white" stroke-width="3"/>
</svg>
