<svg width="20" height="20" viewBox="0 0 20 20" fill="none" xmlns="http://www.w3.org/2000/svg">
<path d="M10 20C15.5229 20 20 15.5229 20 10C20 4.47715 15.5229 0 10 0C4.47715 0 0 4.47715 0 10C0 15.5229 4.47715 20 10 20Z" fill="white"/>
<path fill-rule="evenodd" clip-rule="evenodd" d="M4.58704 9.82782C7.49495 8.56086 9.43386 7.7255 10.4038 7.32177C13.174 6.17013 13.7526 5.97013 14.1247 5.96268C14.2627 5.96 14.398 6.00068 14.5117 6.079C14.5915 6.14773 14.6423 6.24409 14.654 6.34877C14.674 6.47891 14.6796 6.61086 14.6708 6.74223C14.521 8.32363 13.8708 12.146 13.5405 13.9125C13.401 14.6566 13.1256 14.9106 12.8586 14.9357C12.28 14.9887 11.8354 14.5525 11.2773 14.185C10.3991 13.6092 9.90331 13.2548 9.05122 12.6892C8.06609 12.038 8.70518 11.6836 9.26609 11.1013C9.41309 10.9487 11.9638 8.62691 12.014 8.41663C12.0206 8.38559 12.0199 8.35345 12.0118 8.32272C12.0037 8.29204 11.9885 8.26368 11.9675 8.23991C11.937 8.22082 11.9024 8.20913 11.8665 8.20573C11.8307 8.20236 11.7945 8.20736 11.761 8.22036C11.6735 8.23959 10.2714 9.16641 7.55445 11.0009C7.15631 11.2743 6.79572 11.4077 6.47263 11.4009C6.11631 11.3925 5.43168 11.199 4.92191 11.0287C4.29772 10.826 3.80563 10.719 3.84471 10.3776C3.86765 10.199 4.11509 10.0157 4.58704 9.82782Z" fill="black"/>
</svg>
