<svg width="23" height="20" viewBox="0 0 23 20" fill="none" xmlns="http://www.w3.org/2000/svg">
<path d="M0.780015 17.7535C3.16407 17.9954 5.3123 17.3181 7.26756 15.6637C5.22225 15.4605 3.85442 14.3091 3.09118 12.1516C3.76009 12.2435 4.38612 12.2677 5.05073 12.0645C2.84677 11.2905 1.67189 9.66505 1.51324 7.04307C2.17357 7.39138 2.79531 7.64294 3.52854 7.65261C2.22074 6.5448 1.55183 5.10803 1.57756 3.29877C1.59042 2.4667 1.78766 1.68301 2.17786 0.942861C4.60051 4.14051 7.64061 5.91108 11.3839 6.20617C11.3625 6.02234 11.3496 5.87721 11.3325 5.72725C11.0237 3.04722 12.5674 0.609067 14.9257 0.101119C16.405 -0.218163 17.7128 0.222059 18.8191 1.37341C18.9906 1.54756 19.1364 1.58626 19.3508 1.52337C20.2127 1.27666 21.0316 0.918673 21.8249 0.434913C21.5205 1.56691 20.8944 2.41833 20.0454 3.13429C20.2384 3.09559 20.4356 3.06657 20.6286 3.02303C20.8301 2.97465 21.0316 2.92144 21.2332 2.85855C21.4261 2.8005 21.6148 2.73277 21.8034 2.66021C21.9964 2.58764 22.1894 2.50541 22.4166 2.46187C22.3051 2.63602 22.1979 2.81985 22.0779 2.98917C21.5805 3.70029 21.0059 4.32434 20.3756 4.88067C20.3113 4.93872 20.2555 5.0645 20.2598 5.15157C20.2941 6.86892 20.0797 8.54273 19.5866 10.1682C18.6176 13.3707 16.9281 15.9636 14.394 17.8164C13.1419 18.7307 11.7741 19.3306 10.312 19.6789C8.86265 20.0223 7.40478 20.0852 5.94261 19.8917C4.47616 19.6982 3.0826 19.2096 1.77051 18.4453C1.4232 18.247 1.08874 18.0244 0.75 17.8116C0.762864 17.7922 0.771439 17.7729 0.780015 17.7535Z" fill="white"/>
</svg>
