<svg width="53" height="51" viewBox="0 0 53 51" fill="none" xmlns="http://www.w3.org/2000/svg">
<path d="M1.73826 0.753657L1.73825 48.7537M50.7383 0.753657L50.7383 48.7537L25.7383 48.7537" stroke="white" stroke-width="3"/>
<line x1="12.2383" y1="25.2537" x2="12.2383" y2="49.2537" stroke="white" stroke-width="3"/>
<path d="M40.2383 6.25366C40.2383 6.51784 40.1058 6.93501 39.5075 7.48259C38.9083 8.03102 37.958 8.59383 36.6569 9.09745C34.0646 10.1009 30.3815 10.7537 26.2383 10.7537C22.095 10.7537 18.4119 10.1009 15.8196 9.09745C14.5186 8.59383 13.5683 8.03102 12.9691 7.48259C12.3707 6.93501 12.2383 6.51784 12.2383 6.25366C12.2383 5.98948 12.3707 5.57231 12.9691 5.02473C13.5683 4.4763 14.5186 3.9135 15.8196 3.40987C18.4119 2.40639 22.095 1.75366 26.2383 1.75366C30.3815 1.75366 34.0646 2.40639 36.6569 3.40987C37.958 3.9135 38.9083 4.4763 39.5075 5.02473C40.1058 5.57231 40.2383 5.98948 40.2383 6.25366Z" stroke="#FF3D00" stroke-width="3"/>
</svg>
